<?xml version="1.0" ?><!DOCTYPE svg  PUBLIC '-//W3C//DTD SVG 1.1//EN'  'http://www.w3.org/Graphics/SVG/1.1/DTD/svg11.dtd'><svg enable-background="new 0 0 512 512" height="512" id="Layer_1" overflow="visible" version="1.1" viewBox="0 0 512 512" width="512" xml:space="preserve" xmlns="http://www.w3.org/2000/svg" xmlns:xlink="http://www.w3.org/1999/xlink"><g><ellipse cx="256.235" cy="255.566" fill="#FFFFFF" rx="237.84" ry="228.066" stroke="#000000" stroke-width="30.3667"/><polygon fill="#FFFFFF" points="368.271,118.187 276.383,198.185 315.103,194.213   194.485,324.123 242.483,316.139 145.763,443.92 296.361,290.065 254.983,294.272 388.044,171.776 360.579,169.954   424.909,111.029  " stroke="#000000" stroke-width="13.9968"/><g><path d="M374.37,390.775c0.628,0.624,0.63,1.641,0.005,2.269    l-29.413,29.562c-0.626,0.629-1.642,0.631-2.269,0.006l-194.43-193.454c-0.629-0.624-0.631-1.64-0.007-2.268l29.415-29.562    c0.625-0.628,1.64-0.63,2.27-0.006L374.37,390.775z" fill="#FFFFFF" stroke="#000000" stroke-width="13.875"/><path d="M145.519,153.953c4.503,4.479-0.197,16.506-10.498,26.859    l-6.756,6.79c-10.303,10.354-22.304,15.114-26.808,10.635l-2.952-2.939c-4.504-4.48,0.194-16.505,10.497-26.859l6.756-6.791    c10.3-10.352,22.304-15.115,26.807-10.633L145.519,153.953z" fill="#FFFFFF" stroke="#000000" stroke-width="13.875"/><rect fill="#FFFFFF" height="104.812" stroke="#000000" stroke-width="13.875" transform="matrix(0.7053 -0.7089 0.7089 0.7053 -101.9421 177.9813)" width="189.303" x="68.459" y="159.204"/><path d="M384.023,395.856c1.046,1.039-1.143,4.938-4.894,8.704    l-22.914,23.031c-3.746,3.767-7.633,5.979-8.68,4.936l-31.461-31.302c-1.044-1.039,1.144-4.939,4.895-8.704l22.914-23.031    c3.75-3.768,7.633-5.979,8.68-4.936L384.023,395.856z" fill="#FFFFFF" stroke="#000000" stroke-width="13.875"/></g></g></svg>